# xmcd
#
# Track frame offsets: 
#        150
#        18142
#        35588
#        52121
#        69421
#        83624
#
# Disc length: 1268 seconds
#
# Revision: 0
# Processed by: cddbd v1.5.2PL0 Copyright (c) Steve Scherf et al.
# Submitted via: ExactAudioCopy v0.99pb4
#
DISCID=4204f206
DTITLE=Various Artist - SCM - Volume 12
DYEAR=2010
DGENRE=Gospel
TTITLE0=Ritchie, Charlotte - My Father's Angels
TTITLE1=Who Can Afford To Be Wrong
TTITLE2=Evident Call - I Can't Lose
TTITLE3=Sines Jr, John - Walking With Jesus
TTITLE4=Robinette, Tammy Jones - I Want To Walk On the Water
TTITLE5=Mote, Gordon - When I Lift Up My Head
EXTD=
EXTT0=
EXTT1=
EXTT2=
EXTT3=
EXTT4=
EXTT5=
PLAYORDER=
